UPM256-Regular.ufo
<glyph name="plus" format="1">
  <advance width="148"/>
  <unicode hex="002B"/>
  <outline>
    <contour>
      <point x="64" y="12" type="line"/>
      <point x="86" y="12" type="line"/>
      <point x="86" y="62" type="line"/>
      <point x="132" y="62" type="line"/>
      <point x="132" y="84" type="line"/>
      <point x="86" y="84" type="line"/>
      <point x="86" y="132" type="line"/>
      <point x="64" y="132" type="line"/>
      <point x="64" y="84" type="line"/>
      <point x="16" y="84" type="line"/>
      <point x="16" y="62" type="line"/>
      <point x="64" y="62" type="line"/>
    </contour>
  </outline>
</glyph>
<glyph name="zero" format="1">
  <advance width="208"/>
  <unicode hex="0030"/>
  <outline>
    <contour>
      <point x="104" y="-4" type="curve" smooth="yes"/>
      <point x="156" y="-4"/>
      <point x="180" y="38"/>
      <point x="180" y="90" type="curve" smooth="yes"/>
      <point x="180" y="142"/>
      <point x="156" y="184"/>
      <point x="104" y="184" type="curve" smooth="yes"/>
      <point x="52" y="184"/>
      <point x="28" y="142"/>
      <point x="28" y="90" type="curve" smooth="yes"/>
      <point x="28" y="38"/>
      <point x="52" y="-4"/>
    </contour>
    <contour>
      <point x="104" y="18" type="curve" smooth="yes"/>
      <point x="66" y="18"/>
      <point x="54" y="52"/>
      <point x="54" y="90" type="curve" smooth="yes"/>
      <point x="54" y="132"/>
      <point x="66" y="162"/>
      <point x="104" y="162" type="curve" smooth="yes"/>
      <point x="142" y="162"/>
      <point x="154" y="132"/>
      <point x="154" y="90" type="curve" smooth="yes"/>
      <point x="154" y="52"/>
      <point x="142" y="18"/>
    </contour>
  </outline>
</glyph>
<glyph name="three" format="1">
  <advance width="142"/>
  <unicode hex="0033"/>
  <outline>
    <contour>
      <point x="58" y="88" type="line"/>
      <point x="62" y="90"/>
      <point x="71" y="91"/>
      <point x="77" y="91" type="curve" smooth="yes"/>
      <point x="95" y="91"/>
      <point x="112" y="76"/>
      <point x="112" y="52" type="curve" smooth="yes"/>
      <point x="112" y="34"/>
      <point x="100" y="20"/>
      <point x="74" y="20" type="curve" smooth="yes"/>
      <point x="52" y="20"/>
      <point x="36" y="34"/>
      <point x="34" y="58" type="curve"/>
      <point x="8" y="52" type="line"/>
      <point x="10" y="22"/>
      <point x="32" y="-4"/>
      <point x="74" y="-4" type="curve" smooth="yes"/>
      <point x="118" y="-4"/>
      <point x="140" y="24"/>
      <point x="140" y="54" type="curve" smooth="yes"/>
      <point x="140" y="90"/>
      <point x="110" y="108"/>
      <point x="84" y="108" type="curve"/>
      <point x="136" y="156" type="line"/>
      <point x="136" y="180" type="line"/>
      <point x="12" y="180" type="line"/>
      <point x="12" y="156" type="line"/>
      <point x="100" y="156" type="line"/>
      <point x="55" y="107" type="line"/>
    </contour>
  </outline>
</glyph>
<glyph name="five" format="1">
  <advance width="142"/>
  <unicode hex="0035"/>
  <outline>
    <contour>
      <point x="12" y="48" type="line"/>
      <point x="14" y="20"/>
      <point x="40" y="-4"/>
      <point x="80" y="-4" type="curve" smooth="yes"/>
      <point x="120" y="-4"/>
      <point x="146" y="24"/>
      <point x="146" y="58" type="curve" smooth="yes"/>
      <point x="146" y="94"/>
      <point x="120" y="118"/>
      <point x="84" y="118" type="curve" smooth="yes"/>
      <point x="70" y="118"/>
      <point x="56" y="112"/>
      <point x="48" y="104" type="curve"/>
      <point x="56" y="156" type="line"/>
      <point x="138" y="156" type="line"/>
      <point x="138" y="180" type="line"/>
      <point x="42" y="180" type="line"/>
      <point x="18" y="90" type="line"/>
      <point x="28" y="88"/>
      <point x="34" y="88"/>
      <point x="44" y="84" type="curve"/>
      <point x="52" y="92"/>
      <point x="66" y="94"/>
      <point x="78" y="94" type="curve" smooth="yes"/>
      <point x="100" y="94"/>
      <point x="118" y="80"/>
      <point x="118" y="56" type="curve" smooth="yes"/>
      <point x="118" y="34"/>
      <point x="100" y="20"/>
      <point x="80" y="20" type="curve" smooth="yes"/>
      <point x="56" y="20"/>
      <point x="36" y="32"/>
      <point x="34" y="54" type="curve"/>
    </contour>
  </outline>
</glyph>
<glyph name="seven" format="1">
  <advance width="142"/>
  <unicode hex="0037"/>
  <outline>
    <contour>
      <point x="136" y="180" type="line"/>
      <point x="4" y="180" type="line"/>
      <point x="4" y="156" type="line"/>
      <point x="106" y="156" type="line"/>
      <point x="106" y="156"/>
      <point x="40" y="106"/>
      <point x="32" y="0" type="curve"/>
      <point x="60" y="0" type="line"/>
      <point x="68" y="96"/>
      <point x="120" y="140"/>
      <point x="136" y="154" type="curve"/>
    </contour>
  </outline>
</glyph>
<glyph name="eight" format="1">
  <advance width="142"/>
  <unicode hex="0038"/>
  <outline>
    <contour>
      <point x="72" y="106" type="curve" smooth="yes"/>
      <point x="54" y="106"/>
      <point x="40" y="118"/>
      <point x="40" y="136" type="curve" smooth="yes"/>
      <point x="40" y="152"/>
      <point x="52" y="164"/>
      <point x="72" y="164" type="curve" smooth="yes"/>
      <point x="94" y="164"/>
      <point x="106" y="152"/>
      <point x="106" y="136" type="curve" smooth="yes"/>
      <point x="106" y="118"/>
      <point x="92" y="106"/>
    </contour>
    <contour>
      <point x="72" y="20" type="curve" smooth="yes"/>
      <point x="48" y="20"/>
      <point x="34" y="34"/>
      <point x="34" y="52" type="curve" smooth="yes"/>
      <point x="34" y="70"/>
      <point x="48" y="82"/>
      <point x="72" y="82" type="curve" smooth="yes"/>
      <point x="96" y="82"/>
      <point x="110" y="70"/>
      <point x="110" y="52" type="curve" smooth="yes"/>
      <point x="110" y="34"/>
      <point x="98" y="20"/>
    </contour>
    <contour>
      <point x="72" y="-4" type="curve" smooth="yes"/>
      <point x="114" y="-4"/>
      <point x="138" y="20"/>
      <point x="138" y="50" type="curve" smooth="yes"/>
      <point x="138" y="72"/>
      <point x="124" y="88"/>
      <point x="104" y="94" type="curve"/>
      <point x="120" y="100"/>
      <point x="134" y="118"/>
      <point x="134" y="136" type="curve" smooth="yes"/>
      <point x="134" y="166"/>
      <point x="108" y="188"/>
      <point x="72" y="188" type="curve" smooth="yes"/>
      <point x="38" y="188"/>
      <point x="12" y="166"/>
      <point x="12" y="136" type="curve" smooth="yes"/>
      <point x="12" y="116"/>
      <point x="26" y="100"/>
      <point x="42" y="94" type="curve"/>
      <point x="22" y="88"/>
      <point x="8" y="72"/>
      <point x="8" y="50" type="curve" smooth="yes"/>
      <point x="8" y="20"/>
      <point x="32" y="-4"/>
    </contour>
  </outline>
</glyph>
<glyph name="C" format="1">
  <advance width="196"/>
  <unicode hex="0043"/>
  <outline>
    <contour>
      <point x="12" y="90" type="curve" smooth="yes"/>
      <point x="12" y="38"/>
      <point x="52" y="-4"/>
      <point x="104" y="-4" type="curve" smooth="yes"/>
      <point x="138" y="-4"/>
      <point x="169" y="14"/>
      <point x="186" y="48" type="curve"/>
      <point x="164" y="59" type="line"/>
      <point x="151" y="33"/>
      <point x="132" y="18"/>
      <point x="104" y="18" type="curve" smooth="yes"/>
      <point x="66" y="18"/>
      <point x="38" y="48"/>
      <point x="38" y="90" type="curve" smooth="yes"/>
      <point x="38" y="132"/>
      <point x="66" y="162"/>
      <point x="104" y="162" type="curve" smooth="yes"/>
      <point x="132" y="162"/>
      <point x="151" y="147"/>
      <point x="164" y="121" type="curve"/>
      <point x="186" y="132" type="line"/>
      <point x="169" y="166"/>
      <point x="138" y="184"/>
      <point x="104" y="184" type="curve" smooth="yes"/>
      <point x="52" y="184"/>
      <point x="12" y="142"/>
    </contour>
  </outline>
</glyph>
<glyph name="D" format="1">
  <advance width="182"/>
  <unicode hex="0044"/>
  <outline>
    <contour>
      <point x="84" y="180" type="curve" smooth="yes"/>
      <point x="20" y="180" type="line"/>
      <point x="20" y="0" type="line"/>
      <point x="84" y="0" type="line" smooth="yes"/>
      <point x="146" y="0"/>
      <point x="170" y="44"/>
      <point x="170" y="90" type="curve" smooth="yes"/>
      <point x="170" y="136"/>
      <point x="146" y="180"/>
    </contour>
    <contour>
      <point x="84" y="158" type="line" smooth="yes"/>
      <point x="130" y="158"/>
      <point x="144" y="124"/>
      <point x="144" y="90" type="curve" smooth="yes"/>
      <point x="144" y="56"/>
      <point x="130" y="22"/>
      <point x="84" y="22" type="curve" smooth="yes"/>
      <point x="44" y="22" type="line"/>
      <point x="44" y="158" type="line"/>
    </contour>
  </outline>
</glyph>
<glyph name="E" format="1">
  <advance width="144"/>
  <unicode hex="0045"/>
  <outline>
    <contour>
      <point x="132" y="22" type="line"/>
      <point x="44" y="22" type="line"/>
      <point x="44" y="80" type="line"/>
      <point x="116" y="80" type="line"/>
      <point x="116" y="102" type="line"/>
      <point x="44" y="102" type="line"/>
      <point x="44" y="158" type="line"/>
      <point x="132" y="158" type="line"/>
      <point x="132" y="180" type="line"/>
      <point x="20" y="180" type="line"/>
      <point x="20" y="0" type="line"/>
      <point x="132" y="0" type="line"/>
    </contour>
  </outline>
</glyph>
<glyph name="H" format="1">
  <advance width="192"/>
  <unicode hex="0048"/>
  <outline>
    <contour>
      <point x="168" y="0" type="line"/>
      <point x="168" y="180" type="line"/>
      <point x="144" y="180" type="line"/>
      <point x="144" y="104" type="line"/>
      <point x="48" y="104" type="line"/>
      <point x="48" y="180" type="line"/>
      <point x="24" y="180" type="line"/>
      <point x="24" y="0" type="line"/>
      <point x="48" y="0" type="line"/>
      <point x="48" y="82" type="line"/>
      <point x="144" y="82" type="line"/>
      <point x="144" y="0" type="line"/>
    </contour>
  </outline>
</glyph>
<glyph name="I" format="1">
  <advance width="72"/>
  <unicode hex="0049"/>
  <outline>
    <contour>
      <point x="48" y="180" type="line"/>
      <point x="24" y="180" type="line"/>
      <point x="24" y="0" type="line"/>
      <point x="48" y="0" type="line"/>
    </contour>
  </outline>
</glyph>
<glyph name="J" format="1">
  <advance width="136"/>
  <unicode hex="004A"/>
  <outline>
    <contour>
      <point x="96" y="60" type="line"/>
      <point x="96" y="36"/>
      <point x="84" y="20"/>
      <point x="64" y="20" type="curve" smooth="yes"/>
      <point x="44" y="20"/>
      <point x="32" y="36"/>
      <point x="32" y="60" type="curve"/>
      <point x="8" y="60" type="line"/>
      <point x="8" y="26"/>
      <point x="18" y="-2"/>
      <point x="64" y="-2" type="curve" smooth="yes"/>
      <point x="110" y="-2"/>
      <point x="120" y="30"/>
      <point x="120" y="64" type="curve"/>
      <point x="120" y="180" type="line"/>
      <point x="96" y="180" type="line"/>
    </contour>
  </outline>
</glyph>
<glyph name="K" format="1">
  <advance width="170"/>
  <unicode hex="004B"/>
  <outline>
    <contour>
      <point x="44" y="60" type="line"/>
      <point x="164" y="180" type="line"/>
      <point x="132" y="180" type="line"/>
      <point x="44" y="92" type="line"/>
      <point x="44" y="180" type="line"/>
      <point x="20" y="180" type="line"/>
      <point x="20" y="0" type="line"/>
      <point x="44" y="0" type="line"/>
    </contour>
    <contour>
      <point x="76" y="120" type="line"/>
      <point x="136" y="0" type="line"/>
      <point x="164" y="0" type="line"/>
      <point x="104" y="120" type="line"/>
    </contour>
  </outline>
</glyph>
<glyph name="M" format="1">
  <advance width="242"/>
  <unicode hex="004D"/>
  <outline>
    <contour>
      <point x="120" y="68" type="line"/>
      <point x="64" y="180" type="line"/>
      <point x="40" y="180" type="line"/>
      <point x="16" y="0" type="line"/>
      <point x="40" y="0" type="line"/>
      <point x="59" y="138" type="line"/>
      <point x="111" y="34" type="line"/>
      <point x="129" y="34" type="line"/>
      <point x="181" y="138" type="line"/>
      <point x="200" y="0" type="line"/>
      <point x="224" y="0" type="line"/>
      <point x="200" y="180" type="line"/>
      <point x="176" y="180" type="line"/>
    </contour>
  </outline>
</glyph>
<glyph name="N" format="1">
  <advance width="188"/>
  <unicode hex="004E"/>
  <outline>
    <contour>
      <point x="142" y="0" type="line"/>
      <point x="168" y="0" type="line"/>
      <point x="168" y="180" type="line"/>
      <point x="144" y="180" type="line"/>
      <point x="144" y="41" type="line"/>
      <point x="52" y="180" type="line"/>
      <point x="20" y="180" type="line"/>
      <point x="20" y="0" type="line"/>
      <point x="44" y="0" type="line"/>
      <point x="44" y="148" type="line"/>
    </contour>
  </outline>
</glyph>
<glyph name="Q" format="1">
  <advance width="208"/>
  <unicode hex="0051"/>
  <outline>
    <contour>
      <point x="120" y="76" type="line"/>
      <point x="104" y="60" type="line"/>
      <point x="180" y="-16" type="line"/>
      <point x="196" y="0" type="line"/>
    </contour>
    <contour>
      <point x="104" y="-4" type="curve" smooth="yes"/>
      <point x="156" y="-4"/>
      <point x="196" y="38"/>
      <point x="196" y="90" type="curve" smooth="yes"/>
      <point x="196" y="142"/>
      <point x="156" y="184"/>
      <point x="104" y="184" type="curve" smooth="yes"/>
      <point x="52" y="184"/>
      <point x="12" y="142"/>
      <point x="12" y="90" type="curve" smooth="yes"/>
      <point x="12" y="38"/>
      <point x="52" y="-4"/>
    </contour>
    <contour>
      <point x="104" y="18" type="curve" smooth="yes"/>
      <point x="66" y="18"/>
      <point x="38" y="52"/>
      <point x="38" y="90" type="curve" smooth="yes"/>
      <point x="38" y="132"/>
      <point x="66" y="162"/>
      <point x="104" y="162" type="curve" smooth="yes"/>
      <point x="142" y="162"/>
      <point x="170" y="132"/>
      <point x="170" y="90" type="curve" smooth="yes"/>
      <point x="170" y="52"/>
      <point x="142" y="18"/>
    </contour>
  </outline>
</glyph>
<glyph name="R" format="1">
  <advance width="160"/>
  <unicode hex="0052"/>
  <outline>
    <contour>
      <point x="90" y="158" type="line" smooth="yes"/>
      <point x="108" y="158"/>
      <point x="122" y="146"/>
      <point x="122" y="128" type="curve" smooth="yes"/>
      <point x="122" y="110"/>
      <point x="108" y="98"/>
      <point x="90" y="98" type="curve" smooth="yes"/>
      <point x="48" y="98" type="line"/>
      <point x="48" y="158" type="line"/>
    </contour>
    <contour>
      <point x="48" y="0" type="line"/>
      <point x="48" y="76" type="line"/>
      <point x="84" y="76" type="line"/>
      <point x="122" y="0" type="line"/>
      <point x="148" y="0" type="line"/>
      <point x="109" y="78" type="line"/>
      <point x="132" y="83"/>
      <point x="148" y="103"/>
      <point x="148" y="128" type="curve" smooth="yes"/>
      <point x="148" y="158"/>
      <point x="126" y="180"/>
      <point x="96" y="180" type="curve" smooth="yes"/>
      <point x="24" y="180" type="line"/>
      <point x="24" y="0" type="line"/>
    </contour>
  </outline>
</glyph>
<glyph name="S" format="1">
  <advance width="145"/>
  <unicode hex="0053"/>
  <outline>
    <contour>
      <point x="137" y="50" type="curve" smooth="yes"/>
      <point x="137" y="74"/>
      <point x="117" y="93"/>
      <point x="83" y="101" type="curve" smooth="yes"/>
      <point x="50" y="109"/>
      <point x="39" y="114"/>
      <point x="39" y="131" type="curve" smooth="yes"/>
      <point x="39" y="143"/>
      <point x="50" y="162"/>
      <point x="74" y="162" type="curve" smooth="yes"/>
      <point x="94" y="162"/>
      <point x="106" y="152"/>
      <point x="114" y="132" type="curve"/>
      <point x="136" y="139" type="line"/>
      <point x="128" y="171"/>
      <point x="99" y="184"/>
      <point x="74" y="184" type="curve" smooth="yes"/>
      <point x="32" y="184"/>
      <point x="15" y="151"/>
      <point x="15" y="131" type="curve" smooth="yes"/>
      <point x="15" y="99"/>
      <point x="34" y="87"/>
      <point x="67" y="79" type="curve" smooth="yes"/>
      <point x="101" y="71"/>
      <point x="113" y="60"/>
      <point x="113" y="50" type="curve" smooth="yes"/>
      <point x="113" y="30"/>
      <point x="102" y="20"/>
      <point x="78" y="20" type="curve" smooth="yes"/>
      <point x="48" y="20"/>
      <point x="36" y="34"/>
      <point x="32" y="58" type="curve"/>
      <point x="8" y="48" type="line"/>
      <point x="16" y="18"/>
      <point x="36" y="-4"/>
      <point x="78" y="-4" type="curve" smooth="yes"/>
      <point x="126" y="-4"/>
      <point x="137" y="24"/>
    </contour>
  </outline>
</glyph>
<glyph name="U" format="1">
  <advance width="172"/>
  <unicode hex="0055"/>
  <outline>
    <contour>
      <point x="126" y="58" type="line"/>
      <point x="126" y="38"/>
      <point x="116" y="18"/>
      <point x="86" y="18" type="curve" smooth="yes"/>
      <point x="56" y="18"/>
      <point x="46" y="38"/>
      <point x="46" y="58" type="curve"/>
      <point x="46" y="180" type="line"/>
      <point x="22" y="180" type="line"/>
      <point x="22" y="56" type="line"/>
      <point x="22" y="28"/>
      <point x="40" y="-4"/>
      <point x="86" y="-4" type="curve" smooth="yes"/>
      <point x="132" y="-4"/>
      <point x="150" y="28"/>
      <point x="150" y="56" type="curve"/>
      <point x="150" y="180" type="line"/>
      <point x="126" y="180" type="line"/>
    </contour>
  </outline>
</glyph>
<glyph name="Y" format="1">
  <advance width="152"/>
  <unicode hex="0059"/>
  <outline>
    <contour>
      <point x="88" y="76" type="line"/>
      <point x="152" y="180" type="line"/>
      <point x="124" y="180" type="line"/>
      <point x="76" y="100" type="line"/>
      <point x="28" y="180" type="line"/>
      <point x="0" y="180" type="line"/>
      <point x="64" y="76" type="line"/>
      <point x="64" y="0" type="line"/>
      <point x="88" y="0" type="line"/>
    </contour>
  </outline>
</glyph>
<glyph name="a" format="1">
  <advance width="116"/>
  <unicode hex="0061"/>
  <outline>
    <contour>
      <point x="58" y="16" type="curve"/>
      <point x="40" y="16"/>
      <point x="30" y="22"/>
      <point x="30" y="32" type="curve" smooth="yes"/>
      <point x="30" y="42"/>
      <point x="40" y="50"/>
      <point x="56" y="54" type="curve" smooth="yes"/>
      <point x="64" y="56"/>
      <point x="80" y="60"/>
      <point x="86" y="64" type="curve"/>
      <point x="86" y="44" type="line"/>
      <point x="86" y="28"/>
      <point x="76" y="16"/>
    </contour>
    <contour>
      <point x="88" y="16" type="curve"/>
      <point x="88" y="0" type="line"/>
      <point x="108" y="0" type="line"/>
      <point x="108" y="80" type="line" smooth="yes"/>
      <point x="108" y="112"/>
      <point x="84" y="124"/>
      <point x="64" y="124" type="curve"/>
      <point x="36" y="124"/>
      <point x="13" y="108"/>
      <point x="10" y="86" type="curve"/>
      <point x="29" y="81" type="line"/>
      <point x="32" y="93"/>
      <point x="40" y="104"/>
      <point x="58" y="104" type="curve"/>
      <point x="76" y="104"/>
      <point x="86" y="94"/>
      <point x="86" y="84" type="curve" smooth="yes"/>
      <point x="86" y="76"/>
      <point x="64" y="72"/>
      <point x="56" y="70" type="curve" smooth="yes"/>
      <point x="24" y="62"/>
      <point x="8" y="56"/>
      <point x="8" y="28" type="curve" smooth="yes"/>
      <point x="8" y="2"/>
      <point x="32" y="-4"/>
      <point x="52" y="-4" type="curve"/>
      <point x="68" y="-4"/>
      <point x="80" y="4"/>
    </contour>
  </outline>
</glyph>
<glyph name="d" format="1">
  <advance width="132"/>
  <unicode hex="0064"/>
  <outline>
    <contour>
      <point x="66" y="104" type="curve"/>
      <point x="84" y="104"/>
      <point x="94" y="92"/>
      <point x="94" y="76" type="curve" smooth="yes"/>
      <point x="94" y="44" type="line" smooth="yes"/>
      <point x="94" y="28"/>
      <point x="84" y="16"/>
      <point x="66" y="16" type="curve"/>
      <point x="48" y="16"/>
      <point x="30" y="28"/>
      <point x="30" y="60" type="curve" smooth="yes"/>
      <point x="30" y="92"/>
      <point x="48" y="104"/>
    </contour>
    <contour>
      <point x="94" y="106" type="line"/>
      <point x="88" y="116"/>
      <point x="76" y="124"/>
      <point x="60" y="124" type="curve"/>
      <point x="40" y="124"/>
      <point x="8" y="108"/>
      <point x="8" y="60" type="curve" smooth="yes"/>
      <point x="8" y="12"/>
      <point x="40" y="-4"/>
      <point x="60" y="-4" type="curve"/>
      <point x="76" y="-4"/>
      <point x="86" y="4"/>
      <point x="94" y="16" type="curve"/>
      <point x="102" y="0" type="line"/>
      <point x="116" y="0" type="line"/>
      <point x="116" y="180" type="line"/>
      <point x="94" y="180" type="line"/>
    </contour>
  </outline>
</glyph>
<glyph name="f" format="1">
  <advance width="88"/>
  <unicode hex="0066"/>
  <outline>
    <contour>
      <point x="80" y="164" type="curve"/>
      <point x="80" y="184" type="line"/>
      <point x="60" y="184"/>
      <point x="30" y="172"/>
      <point x="30" y="140" type="curve" smooth="yes"/>
      <point x="30" y="124" type="line"/>
      <point x="8" y="124" type="line"/>
      <point x="8" y="106" type="line"/>
      <point x="30" y="106" type="line"/>
      <point x="30" y="0" type="line"/>
      <point x="52" y="0" type="line"/>
      <point x="52" y="106" type="line"/>
      <point x="80" y="106" type="line"/>
      <point x="80" y="124" type="line"/>
      <point x="52" y="124" type="line"/>
      <point x="52" y="136" type="line" smooth="yes"/>
      <point x="52" y="152"/>
      <point x="62" y="164"/>
    </contour>
  </outline>
</glyph>
<glyph name="g" format="1">
  <advance width="124"/>
  <unicode hex="0067"/>
  <outline>
    <contour>
      <point x="66" y="16" type="curve"/>
      <point x="48" y="16"/>
      <point x="30" y="30"/>
      <point x="30" y="62" type="curve" smooth="yes"/>
      <point x="30" y="94"/>
      <point x="48" y="108"/>
      <point x="66" y="108" type="curve"/>
      <point x="84" y="108"/>
      <point x="94" y="96"/>
      <point x="94" y="80" type="curve" smooth="yes"/>
      <point x="94" y="44" type="line" smooth="yes"/>
      <point x="94" y="28"/>
      <point x="84" y="16"/>
    </contour>
    <contour>
      <point x="94" y="-4" type="line"/>
      <point x="94" y="-22"/>
      <point x="80" y="-34"/>
      <point x="62" y="-34" type="curve" smooth="yes"/>
      <point x="46" y="-34"/>
      <point x="38" y="-24"/>
      <point x="34" y="-12" type="curve"/>
      <point x="14" y="-18" type="line"/>
      <point x="20" y="-34"/>
      <point x="32" y="-52"/>
      <point x="62" y="-52" type="curve" smooth="yes"/>
      <point x="96" y="-52"/>
      <point x="116" y="-32"/>
      <point x="116" y="-4" type="curve"/>
      <point x="116" y="124" type="line"/>
      <point x="94" y="124" type="line"/>
      <point x="94" y="108" type="line"/>
      <point x="86" y="120"/>
      <point x="76" y="128"/>
      <point x="60" y="128" type="curve"/>
      <point x="40" y="128"/>
      <point x="8" y="110"/>
      <point x="8" y="62" type="curve" smooth="yes"/>
      <point x="8" y="14"/>
      <point x="40" y="-4"/>
      <point x="60" y="-4" type="curve"/>
      <point x="76" y="-4"/>
      <point x="88" y="4"/>
      <point x="94" y="14" type="curve"/>
    </contour>
  </outline>
</glyph>
<glyph name="i" format="1">
  <advance width="50"/>
  <unicode hex="0069"/>
  <outline>
    <contour>
      <point x="36" y="124" type="line"/>
      <point x="14" y="124" type="line"/>
      <point x="14" y="0" type="line"/>
      <point x="36" y="0" type="line"/>
    </contour>
    <contour>
      <point x="38" y="184" type="line"/>
      <point x="12" y="184" type="line"/>
      <point x="12" y="154" type="line"/>
      <point x="38" y="154" type="line"/>
    </contour>
  </outline>
</glyph>
<glyph name="l" format="1">
  <advance width="54"/>
  <unicode hex="006C"/>
  <outline>
    <contour>
      <point x="38" y="180" type="line"/>
      <point x="16" y="180" type="line"/>
      <point x="16" y="0" type="line"/>
      <point x="38" y="0" type="line"/>
    </contour>
  </outline>
</glyph>
<glyph name="m" format="1">
  <advance width="200"/>
  <unicode hex="006D"/>
  <outline>
    <contour>
      <point x="34" y="76" type="line" smooth="yes"/>
      <point x="34" y="92"/>
      <point x="46" y="104"/>
      <point x="62" y="104" type="curve"/>
      <point x="80" y="104"/>
      <point x="90" y="92"/>
      <point x="90" y="76" type="curve" smooth="yes"/>
      <point x="90" y="0" type="line"/>
      <point x="110" y="0" type="line"/>
      <point x="110" y="76" type="line" smooth="yes"/>
      <point x="110" y="92"/>
      <point x="122" y="104"/>
      <point x="138" y="104" type="curve"/>
      <point x="156" y="104"/>
      <point x="166" y="92"/>
      <point x="166" y="76" type="curve" smooth="yes"/>
      <point x="166" y="0" type="line"/>
      <point x="188" y="0" type="line"/>
      <point x="188" y="82" type="line" smooth="yes"/>
      <point x="188" y="114"/>
      <point x="164" y="126"/>
      <point x="144" y="126" type="curve"/>
      <point x="128" y="126"/>
      <point x="114" y="116"/>
      <point x="108" y="104" type="curve"/>
      <point x="100" y="120"/>
      <point x="84" y="126"/>
      <point x="68" y="126" type="curve"/>
      <point x="52" y="126"/>
      <point x="38" y="116"/>
      <point x="32" y="104" type="curve"/>
      <point x="32" y="124" type="line"/>
      <point x="12" y="124" type="line"/>
      <point x="12" y="0" type="line"/>
      <point x="34" y="0" type="line"/>
    </contour>
  </outline>
</glyph>
<glyph name="n" format="1">
  <advance width="124"/>
  <unicode hex="006E"/>
  <outline>
    <contour>
      <point x="32" y="104" type="curve"/>
      <point x="32" y="124" type="line"/>
      <point x="12" y="124" type="line"/>
      <point x="12" y="0" type="line"/>
      <point x="34" y="0" type="line"/>
      <point x="34" y="76" type="line" smooth="yes"/>
      <point x="34" y="92"/>
      <point x="46" y="104"/>
      <point x="62" y="104" type="curve"/>
      <point x="80" y="104"/>
      <point x="90" y="92"/>
      <point x="90" y="76" type="curve" smooth="yes"/>
      <point x="90" y="0" type="line"/>
      <point x="112" y="0" type="line"/>
      <point x="112" y="82" type="line" smooth="yes"/>
      <point x="112" y="114"/>
      <point x="88" y="126"/>
      <point x="68" y="126" type="curve"/>
      <point x="52" y="126"/>
      <point x="38" y="116"/>
    </contour>
  </outline>
</glyph>
<glyph name="o" format="1">
  <advance width="136"/>
  <unicode hex="006F"/>
  <outline>
    <contour>
      <point x="68" y="-4" type="curve" smooth="yes"/>
      <point x="105" y="-4"/>
      <point x="132" y="28"/>
      <point x="132" y="62" type="curve" smooth="yes"/>
      <point x="132" y="96"/>
      <point x="105" y="128"/>
      <point x="68" y="128" type="curve" smooth="yes"/>
      <point x="32" y="128"/>
      <point x="4" y="96"/>
      <point x="4" y="62" type="curve" smooth="yes"/>
      <point x="4" y="28"/>
      <point x="32" y="-4"/>
    </contour>
    <contour>
      <point x="68" y="16" type="curve" smooth="yes"/>
      <point x="44" y="16"/>
      <point x="24" y="38"/>
      <point x="24" y="62" type="curve" smooth="yes"/>
      <point x="24" y="86"/>
      <point x="44" y="108"/>
      <point x="68" y="108" type="curve" smooth="yes"/>
      <point x="93" y="108"/>
      <point x="112" y="86"/>
      <point x="112" y="62" type="curve" smooth="yes"/>
      <point x="112" y="38"/>
      <point x="93" y="16"/>
    </contour>
  </outline>
</glyph>
<glyph name="r" format="1">
  <advance width="80"/>
  <unicode hex="0072"/>
  <outline>
    <contour>
      <point x="32" y="100" type="curve"/>
      <point x="32" y="120" type="line"/>
      <point x="12" y="120" type="line"/>
      <point x="12" y="0" type="line"/>
      <point x="34" y="0" type="line"/>
      <point x="34" y="72" type="line" smooth="yes"/>
      <point x="34" y="88"/>
      <point x="56" y="108"/>
      <point x="80" y="100" type="curve"/>
      <point x="80" y="120" type="line"/>
      <point x="58" y="128"/>
      <point x="40" y="112"/>
    </contour>
  </outline>
</glyph>
<glyph name="s" format="1">
  <advance width="112"/>
  <unicode hex="0073"/>
  <outline>
    <contour>
      <point x="104" y="34" type="curve" smooth="yes"/>
      <point x="104" y="54"/>
      <point x="92" y="66"/>
      <point x="70" y="70" type="curve" smooth="yes"/>
      <point x="44" y="76"/>
      <point x="34" y="82"/>
      <point x="34" y="92" type="curve" smooth="yes"/>
      <point x="34" y="102"/>
      <point x="44" y="106"/>
      <point x="56" y="106" type="curve" smooth="yes"/>
      <point x="74" y="106"/>
      <point x="77" y="98"/>
      <point x="80" y="90" type="curve"/>
      <point x="102" y="98" type="line"/>
      <point x="96" y="116"/>
      <point x="82" y="128"/>
      <point x="56" y="128" type="curve" smooth="yes"/>
      <point x="24" y="128"/>
      <point x="12" y="110"/>
      <point x="12" y="92" type="curve" smooth="yes"/>
      <point x="12" y="72"/>
      <point x="28" y="59"/>
      <point x="50" y="54" type="curve" smooth="yes"/>
      <point x="74" y="49"/>
      <point x="80" y="44"/>
      <point x="80" y="34" type="curve" smooth="yes"/>
      <point x="80" y="24"/>
      <point x="74" y="18"/>
      <point x="56" y="18" type="curve" smooth="yes"/>
      <point x="40" y="18"/>
      <point x="34" y="28"/>
      <point x="30" y="38" type="curve"/>
      <point x="8" y="30" type="line"/>
      <point x="14" y="14"/>
      <point x="26" y="-4"/>
      <point x="56" y="-4" type="curve" smooth="yes"/>
      <point x="90" y="-4"/>
      <point x="104" y="14"/>
    </contour>
  </outline>
</glyph>
<glyph name="u" format="1">
  <advance width="124"/>
  <unicode hex="0075"/>
  <outline>
    <contour>
      <point x="92" y="16" type="curve"/>
      <point x="92" y="0" type="line"/>
      <point x="112" y="0" type="line"/>
      <point x="112" y="120" type="line"/>
      <point x="90" y="120" type="line"/>
      <point x="90" y="44" type="line" smooth="yes"/>
      <point x="90" y="28"/>
      <point x="80" y="16"/>
      <point x="62" y="16" type="curve"/>
      <point x="44" y="16"/>
      <point x="34" y="28"/>
      <point x="34" y="44" type="curve" smooth="yes"/>
      <point x="34" y="120" type="line"/>
      <point x="12" y="120" type="line"/>
      <point x="12" y="40" type="line" smooth="yes"/>
      <point x="12" y="8"/>
      <point x="36" y="-4"/>
      <point x="56" y="-4" type="curve"/>
      <point x="72" y="-4"/>
      <point x="84" y="4"/>
    </contour>
  </outline>
</glyph>
<glyph name="v" format="1">
  <advance width="132"/>
  <unicode hex="0076"/>
  <outline>
    <contour>
      <point x="126" y="124" type="line"/>
      <point x="102" y="124" type="line"/>
      <point x="56" y="0" type="line"/>
      <point x="78" y="0" type="line"/>
    </contour>
    <contour>
      <point x="6" y="124" type="line"/>
      <point x="54" y="0" type="line"/>
      <point x="76" y="0" type="line"/>
      <point x="30" y="124" type="line"/>
    </contour>
  </outline>
</glyph>
<glyph name="w" format="1">
  <advance width="228"/>
  <unicode hex="0077"/>
  <outline>
    <contour>
      <point x="126" y="124" type="line"/>
      <point x="102" y="124" type="line"/>
      <point x="56" y="0" type="line"/>
      <point x="78" y="0" type="line"/>
    </contour>
    <contour>
      <point x="6" y="124" type="line"/>
      <point x="54" y="0" type="line"/>
      <point x="76" y="0" type="line"/>
      <point x="30" y="124" type="line"/>
    </contour>
    <contour>
      <point x="222" y="124" type="line"/>
      <point x="198" y="124" type="line"/>
      <point x="152" y="0" type="line"/>
      <point x="174" y="0" type="line"/>
    </contour>
    <contour>
      <point x="102" y="124" type="line"/>
      <point x="150" y="0" type="line"/>
      <point x="172" y="0" type="line"/>
      <point x="126" y="124" type="line"/>
    </contour>
  </outline>
</glyph>
<glyph name="x" format="1">
  <advance width="120"/>
  <unicode hex="0078"/>
  <outline>
    <contour>
      <point x="54" y="68" type="line"/>
      <point x="4" y="0" type="line"/>
      <point x="30" y="0" type="line"/>
      <point x="69" y="53" type="line"/>
    </contour>
    <contour>
      <point x="121" y="124" type="line"/>
      <point x="95" y="124" type="line"/>
      <point x="57" y="72" type="line"/>
      <point x="72" y="57" type="line"/>
    </contour>
    <contour>
      <point x="4" y="124" type="line"/>
      <point x="96" y="0" type="line"/>
      <point x="122" y="0" type="line"/>
      <point x="30" y="124" type="line"/>
    </contour>
  </outline>
</glyph>
<glyph name="z" format="1">
  <advance width="112"/>
  <unicode hex="007A"/>
  <outline>
    <contour>
      <point x="8" y="20" type="line"/>
      <point x="8" y="0" type="line"/>
      <point x="104" y="0" type="line"/>
      <point x="104" y="20" type="line"/>
      <point x="36" y="20" type="line"/>
      <point x="104" y="100" type="line"/>
      <point x="104" y="120" type="line"/>
      <point x="12" y="120" type="line"/>
      <point x="12" y="100" type="line"/>
      <point x="76" y="100" type="line"/>
    </contour>
  </outline>
</glyph>
